# xmcd
#
# Track frame offsets:
#	150
#	20407
#	38395
#	57804
#	78126
#	103747
#	122822
#	146266
#	170331
#	196644
#	214662
#	235406
#
# Disc length: 3462 seconds
#
# Revision: 0
# Processed by: cddbd v1.5.1PL0 Copyright (c) Steve Scherf et al.
# Submitted via: audiograbber 1.83.01
#
DISCID=8f0d840c
DTITLE=Timo Gross - Down To The Delta
DYEAR=2005
DGENRE=Blues
TTITLE0=Down To The Delta
TTITLE1=Diggin' In The Dirt
TTITLE2=Further On Up
TTITLE3=I Need You Badly
TTITLE4=Don't Mess Around
TTITLE5=Sugar Mama
TTITLE6=My Baby's Gone
TTITLE7=Struttin'
TTITLE8=All Your Love
TTITLE9=Room To Breathe
TTITLE10=Home
TTITLE11=Trouble
EXTD=www.timogross.com
EXTT0=
EXTT1=
EXTT2=
EXTT3=
EXTT4=
EXTT5=
EXTT6=
EXTT7=
EXTT8=
EXTT9=
EXTT10=
EXTT11=
PLAYORDER=
